<?xml version="1.0" encoding="UTF-8"?>
<svg xmlns="http://www.w3.org/2000/svg" xmlns:xlink="http://www.w3.org/1999/xlink" width="40px" height="40px" viewBox="0 0 40 40" version="1.1">
<g id="surface1">
<path style=" stroke:none;fill-rule:nonzero;fill:rgb(0%,0%,0%);fill-opacity:1;" d="M 5 12.5 L 35 12.5 C 36.378906 12.5 37.5 11.378906 37.5 10 C 37.5 8.621094 36.378906 7.5 35 7.5 L 5 7.5 C 3.621094 7.5 2.5 8.621094 2.5 10 C 2.5 11.378906 3.621094 12.5 5 12.5 Z M 35 17.5 L 5 17.5 C 3.621094 17.5 2.5 18.621094 2.5 20 C 2.5 21.378906 3.621094 22.5 5 22.5 L 35 22.5 C 36.378906 22.5 37.5 21.378906 37.5 20 C 37.5 18.621094 36.378906 17.5 35 17.5 Z M 35 27.5 L 5 27.5 C 3.621094 27.5 2.5 28.621094 2.5 30 C 2.5 31.378906 3.621094 32.5 5 32.5 L 35 32.5 C 36.378906 32.5 37.5 31.378906 37.5 30 C 37.5 28.621094 36.378906 27.5 35 27.5 Z M 35 27.5 "/>
</g>
</svg>
